<?xml version="1.0" encoding="UTF-8"?><svg xmlns="http://www.w3.org/2000/svg" width="16" height="16" viewBox="0 0 16 16"><rect width="16" height="16" fill="#282b35"/><path d="m13.06,7.34l-4.23,3.08h-1.67l-4.23-3.08h1.69v.6c0,.28.09.47.27.57.18.1.53.15,1.05.15h.63l.74.57v1.07l3.78-2.94v-.97c0-.28-.09-.47-.27-.57-.19-.1-.54-.16-1.05-.16h-3.9c-.51,0-.86.05-1.05.16-.02.01-.04.03-.06.04.04-.05.08-.09.14-.12.18-.1.53-.16,1.05-.16h3.9c.51,0,.86.05,1.05.16.18.1.27.3.27.57v1.02h1.9Zm-7.08-.44v-.38c0-.07.06-.13.13-.13h3.8s.02,0,.02,0c-.01-.06-.06-.1-.12-.1h-3.8c-.07,0-.13.06-.13.13v.38c0,.06.04.11.1.12,0,0,0-.02,0-.02Zm0,1.25v-.38c0-.07.06-.13.13-.13h3.8s.02,0,.02,0c-.01-.06-.06-.1-.12-.1h-3.8c-.07,0-.13.06-.13.13v.38c0,.06.04.11.1.12,0,0,0-.02,0-.02Z" fill="#0ef7d0"/></svg>