<?xml version="1.0" encoding="UTF-8"?><svg xmlns="http://www.w3.org/2000/svg" width="16" height="16" viewBox="0 0 600 600"><rect width="600" height="600" fill="#282b35"/><path d="M575,263.88l-229.7,167.11h-90.6L25,263.88H116.89v32.7c0,15.29,4.92,25.7,14.77,31.23,9.85,5.54,28.79,8.3,56.83,8.3h34.07l39.92,31.04v58.34l205.46-159.74v-52.95c0-15.19-4.92-25.6-14.77-31.23-10.13-5.63-29.07-8.44-56.83-8.44H184.37c-27.85,0-46.8,2.81-56.83,8.44-1.22,.71-2.37,1.5-3.44,2.35,2.08-2.58,4.59-4.75,7.57-6.48,10.03-5.63,28.98-8.44,56.83-8.44h211.98c27.76,0,46.7,2.81,56.83,8.44,9.85,5.63,14.77,16.04,14.77,31.23v55.21h102.93Zm-384.66-23.86v-20.63c0-3.8,3.08-6.87,6.87-6.87h206.25c.43,0,.84,.05,1.25,.13-.59-3.2-3.38-5.63-6.75-5.63H191.72c-3.8,0-6.87,3.08-6.87,6.88v20.62c0,3.37,2.43,6.16,5.63,6.75-.07-.41-.13-.82-.13-1.25Zm0,68.06v-20.63c0-3.8,3.08-6.88,6.87-6.88h206.25c.43,0,.84,.05,1.25,.13-.59-3.2-3.38-5.63-6.75-5.63H191.72c-3.8,0-6.87,3.08-6.87,6.88v20.62c0,3.37,2.43,6.16,5.63,6.75-.07-.41-.13-.82-.13-1.25Z" fill="#0ef7d0"/></svg>