<svg xmlns="http://www.w3.org/2000/svg" viewBox="0 0 128 128"><path d="M99.7 58.5C96.6 39.6 79 26.6 60 29c-1.1.2-2.1 0-3.1-.5-5.9-3.1-13-3.2-19-.2-10.2 5.2-14.3 17.6-9.1 27.8.4.8.6 1.7.4 2.5-.3 2-.5 3.9-.5 5.9.1 1.2.1 2.4.2 3.6.1.7.2 1.3.3 2 3.1 19.5 21.5 32.7 41 29.6.6-.1 1.2 0 1.7.3 3.8 1.9 8 2.5 12.2 1.8 1.9-.3 3.7-.8 5.4-1.6 10.4-4.7 15-16.9 10.4-27.3-.2-.5-.3-1.1-.2-1.6.7-4.2.7-8.5 0-12.8zM82 82.5c-2.2 2.6-5.2 4.4-8.5 5.3-6 1.8-12.4 1.8-18.5 0-5.6-1.7-9.7-5.1-11.3-10.9-1.2-4.1 1.5-7.2 5.6-6.7 1.6.2 3 1.3 3.8 2.7.5.9.9 1.8 1.4 2.8 1.3 3 4.2 5 7.4 5.3 2.8.4 5.6 0 8.2-1.1 1-.5 1.9-1.1 2.7-2 .1-.2.3-.3.4-.5 1.5-2.2 1-5.2-1.2-6.8-2.3-1.7-5.1-2.2-7.8-2.8-3.9-.7-7.8-1.8-11.5-3.3-3.8-1.7-6.8-4.1-7.8-8.4-1.3-4.6.4-9.5 4.2-12.4 3.5-2.9 7.7-3.8 12.1-4.2 1-.1 2 0 3 0 4-.2 8 .6 11.6 2.3 2.8 1.3 5.1 3.5 6.4 6.3.7 1.4.9 3 .6 4.5-.4 1.8-1.9 3.2-3.7 3.5-2 .4-3.8.1-5.1-1.8-.6-.9-1.2-1.8-1.7-2.7-1.4-2.8-4.4-4.6-7.6-4.5-1.6-.1-3.1 0-4.7.3-1.4.3-2.6 1-3.7 1.9-.3.2-.5.5-.8.8-1.1 1.6-.7 3.8 1 4.9 1.3 1 2.9 1.7 4.5 2 3.8 1 7.6 1.8 11.4 2.8 2 .6 4 1.3 5.9 2.3 8.9 4.6 8.2 15.2 3.7 20.4z" opacity=".7" fill-rule="evenodd" clip-rule="evenodd" fill="#282b35"/></svg>