<svg version="1.1" id="prefix__Layer_1" xmlns="http://www.w3.org/2000/svg" x="0" y="0" viewBox="0 0 128 128" xml:space="preserve"><style>.prefix__st1{fill:#282b35}</style><g opacity=".7"><path class="prefix__st1" d="M70.8 51.8c-3.1-.2-5.2 2.2-5.2 6.1 0 1.2.4 2.4 1.2 3.4 1.5 2 4.4 2.4 6.4.9.3-.3.7-.6.9-.9 1.6-2.3 1.6-5.4 0-7.7-.7-1.2-1.9-1.8-3.3-1.8zM107 51.8c-3-.2-5.1 2.1-5.1 5.6-.1 1.4.4 2.8 1.2 3.9 1.5 2 4.4 2.4 6.4.9.3-.2.6-.5.8-.8 1.6-2.4 1.6-5.5 0-7.8-.8-1.1-2-1.8-3.3-1.8z"/><path class="prefix__st1" d="M9.9 0h35c.2 0 .4-.1.5.2 0 .5-.6.6-.9.8C39 4.4 34 8.6 29.7 13.6c-7 8.3-11.9 17.9-13.5 29-2.9 19.6 2.9 36.3 16.1 50.2 2.3 2.5 2.7 4.4.8 7.8-2.3 4-5.7 6.8-9.4 9.2-.4.2-.8.5-1.2.8-.6.5-.2.8.3 1 7.2 1.4 14.2.4 21-1.8 2.3-.7 4.6-1.5 7-2.1 1.6-.4 3.3-.4 4.8.2 17.7 6.4 35.2 5.8 52.4-2.1 7.1-3.3 13.4-7.9 18.8-13.5.2-.3.7-1 1.2-1V0H9.9zm47.8 68.2c-.5.4-1.2.6-2.1.6H41.9c-1.3 0-2.6.1-3.9 0h-.2c-.3 0-.6-.1-.9-.1-1.2-.2-2.2-.7-2.8-2-.8-1.7-.2-3.2.8-4.5 4.4-5.4 8.7-11 13-16.4l.8-1-.3-.3c-.2-.1-.5 0-.7 0h-9.4c-.6 0-1.2-.1-1.8-.2-.1 0-.2-.1-.3-.1-.1 0-.1 0-.2-.1-.8-.4-1.4-1.1-1.7-1.9-.4-1.6.6-3.2 2.1-3.6.7-.2 1.4-.3 2.1-.3h15c.9-.1 1.8 0 2.6.3.2.1.4.1.6.2.9.4 1.4 1.2 1.6 2.1V41.2c0 .3 0 .6-.1 1-.1.2-.1.4-.2.6-.7 1.6-1.7 3-2.8 4.3-3.7 4.7-7.3 9.3-11 13.9-.4.4-.7.9-1 1.3h12c.8 0 1.4.1 1.9.4.7.3 1.2.8 1.4 1.4l.3.9c.2 1.5-.2 2.6-1.1 3.2zm24.6-2.4c0 1.5-1 2.7-2.3 3.2-1.4.5-3 .1-3.9-1.1-.5-.6-.7-.7-1.3-.2-2.4 2-5.6 2.5-8.5 1.4-5-1.6-7-5.5-7.6-10.2-.6-5.1 1.1-9.5 5.7-12.1 3.5-2.3 8.1-1.9 11.1 1 .6-.9 1.4-1.6 2.5-1.9 1.8-.5 3.7.6 4.2 2.4.1.3.1.5.1.8.1 5.5 0 11.1 0 16.7zm10.1-13.3v13c0 2-1.5 3.6-3.5 3.7-.3 0-.7 0-1-.1-1.5-.5-2.5-2-2.5-3.6V39.3c0-1.9 1.6-3.5 3.5-3.5s3.5 1.6 3.5 3.5v13.2zm15.4 17c-7.3.8-13.1-4.5-13-11.5-.2-7.2 4.5-12.5 11.2-12.7 7.1-.2 12.3 4.5 12.5 11.5.3 7-4 12.1-10.7 12.7z"/></g></svg>