<svg xmlns="http://www.w3.org/2000/svg" viewBox="0 0 35 30.57"><title>data</title><path d="M2.5,23.89c0-.27,0-.54.07-.81a.9.9,0,0,1,.25-.6,3.43,3.43,0,0,1,1.33-.84A10.6,10.6,0,0,1,6.7,21a2.76,2.76,0,0,1,.4-.06.71.71,0,0,0,.61-.38c.67-1,1.35-2.06,2-3.1,1.2-1.89,2.39-3.8,3.59-5.7l.12-.18s.08,0,.1.07a4.87,4.87,0,0,0,2.31,1.1,17.83,17.83,0,0,0,7,.28,8.84,8.84,0,0,0,2.83-.82c.32-.17.6-.39.92-.6l.11.17q2.79,4.46,5.57,8.91a.33.33,0,0,0,.28.17,11.88,11.88,0,0,1,3.18.68c.31.12.6.28.89.41a1.41,1.41,0,0,1,.86,1.34c0,.92,0,1.84,0,2.76a1.19,1.19,0,0,1-.55.9,5.29,5.29,0,0,1-1.88.87,15.55,15.55,0,0,1-4.51.51,14.44,14.44,0,0,1-4.18-.62,5,5,0,0,1-1.5-.73,1.31,1.31,0,0,1-.58-1.09c0-.89,0-1.78,0-2.67a1.29,1.29,0,0,1,.48-1,4.48,4.48,0,0,1,1.58-.81,14.88,14.88,0,0,1,3.93-.64l.51,0-.22-.37c-1-1.65-2.07-3.31-3.09-5a4.42,4.42,0,0,1-.69-1.55.82.82,0,0,0-.06-.16,1.73,1.73,0,0,0-.2.15,4.76,4.76,0,0,1-2.57,1.37,17.11,17.11,0,0,1-4.57.41,16.06,16.06,0,0,1-3.25-.41,5.76,5.76,0,0,1-1.84-.73,7.59,7.59,0,0,1-.75-.65l-.19-.18c-.06.17-.1.32-.16.46a3.58,3.58,0,0,1-.26.64l-2.37,3.88L9.39,20.5l-.15.28.88.08a14.8,14.8,0,0,1,3.36.53,5.29,5.29,0,0,1,1.72.84,2.83,2.83,0,0,1,.3.3.71.71,0,0,1,.21.55l0,3a1.14,1.14,0,0,1-.51,1,6.45,6.45,0,0,1-2,.86,15.3,15.3,0,0,1-4.81.45,13.24,13.24,0,0,1-3.13-.41,7.15,7.15,0,0,1-1.9-.77,2.64,2.64,0,0,1-.41-.32A1,1,0,0,1,2.53,26a2,2,0,0,0,0-.24Zm6.64.65c.67-.05,1.34-.06,2-.16a3.83,3.83,0,0,0,1.75-.67c.54-.4.54-.83,0-1.21a3.83,3.83,0,0,0-1.22-.5,10.61,10.61,0,0,0-3.93-.24,5.28,5.28,0,0,0-2,.6,2.38,2.38,0,0,0-.54.42.47.47,0,0,0,0,.69,1.43,1.43,0,0,0,.52.4,7.29,7.29,0,0,0,1.49.51C7.8,24.49,8.48,24.49,9.14,24.54Zm21.74,0c.35,0,.7,0,1.05-.05a6.12,6.12,0,0,0,2.23-.53,2.79,2.79,0,0,0,.66-.46.5.5,0,0,0,0-.79,1.7,1.7,0,0,0-.36-.29,4,4,0,0,0-1.55-.56c-.71-.09-1.43-.12-2.15-.14a7.34,7.34,0,0,0-2.79.38,2.76,2.76,0,0,0-1,.52.59.59,0,0,0,0,1,3.57,3.57,0,0,0,.79.43A8.44,8.44,0,0,0,30.88,24.51Z" transform="translate(-2.5 -4.71)" fill="#282b35"/><path d="M2.5,27.93l0-.26.18.12a4.56,4.56,0,0,0,2,1,17.26,17.26,0,0,0,5.59.52,14.74,14.74,0,0,0,3.3-.52,4.64,4.64,0,0,0,2-1,.43.43,0,0,1,.25-.07c2,0,4,0,6,0,.79,0,1.58,0,2.37-.06a.33.33,0,0,1,.19.06,8.65,8.65,0,0,0,4.28,1.44,18,18,0,0,0,4.75,0,9.52,9.52,0,0,0,3.25-1c.23-.13.44-.29.67-.44l.12-.07c0,.12,0,.23,0,.33,0,.48,0,1,0,1.45a1,1,0,0,1-.25.61,3.45,3.45,0,0,1-1.47.9,11.75,11.75,0,0,1-3.75.71,23.1,23.1,0,0,1-3.53-.1,9.12,9.12,0,0,1-3.11-.9c-.62-.33-1.22-.71-1.11-1.58H15.69c.2.75-.25,1.16-.8,1.51a6.76,6.76,0,0,1-2.19.79,17.87,17.87,0,0,1-5.46.26A11.24,11.24,0,0,1,4.15,31,3.45,3.45,0,0,1,2.6,29.86a.74.74,0,0,1-.1-.22Z" transform="translate(-2.5 -4.71)" fill="#282b35"/><path d="M19.64,4.71l.23,0c.86,0,1.71.07,2.57.16a9.5,9.5,0,0,1,3,.82,2.54,2.54,0,0,1,1,.76.8.8,0,0,1,.18.52l0,3a1,1,0,0,1-.41.81,4.26,4.26,0,0,1-1.49.78,11.91,11.91,0,0,1-3.5.61,23.36,23.36,0,0,1-3.55-.08,9.71,9.71,0,0,1-3.32-1,1.5,1.5,0,0,1-.88-1.43c0-.8,0-1.59,0-2.39A1.5,1.5,0,0,1,14.13,6a5.72,5.72,0,0,1,1.95-.79,15.8,15.8,0,0,1,3.35-.46l.11,0ZM20,8.41a9.7,9.7,0,0,0,2.34-.2,3.13,3.13,0,0,0,1.52-.73.56.56,0,0,0,0-1,1.15,1.15,0,0,0-.26-.19,6.42,6.42,0,0,0-.94-.39,10.16,10.16,0,0,0-5-.09,4,4,0,0,0-1.41.58c-.5.37-.51.72-.05,1.13a3.5,3.5,0,0,0,1.47.66A9.62,9.62,0,0,0,20,8.41Z" transform="translate(-2.5 -4.71)" fill="#282b35"/><path d="M2.5,31.46l0-.28.15.1a4.69,4.69,0,0,0,1.91,1A15.38,15.38,0,0,0,9,32.83a14.7,14.7,0,0,0,4.28-.48,11.88,11.88,0,0,0,1.63-.62,5.13,5.13,0,0,0,.76-.52s0,0,0,.06c0,.59,0,1.18,0,1.77a.76.76,0,0,1-.26.6,4.22,4.22,0,0,1-1.38.86,10.34,10.34,0,0,1-3.34.71c-.46,0-.93,0-1.4.06l-.13,0h-.1l-.27,0A15.29,15.29,0,0,1,5,34.78,5.07,5.07,0,0,1,3.13,34a1.33,1.33,0,0,1-.6-1.13,1.13,1.13,0,0,0,0-.18Z" transform="translate(-2.5 -4.71)" fill="#282b35"/><path d="M24.26,31.13l0,0a6.36,6.36,0,0,0,2.84,1.27,20.56,20.56,0,0,0,5.08.33,11.05,11.05,0,0,0,4-.87,13.07,13.07,0,0,0,1.26-.71.55.55,0,0,1,0,.09c0,.58,0,1.16-.07,1.74a1.22,1.22,0,0,1-.58.92,6.87,6.87,0,0,1-2,.85A13.46,13.46,0,0,1,31,35.2a19.32,19.32,0,0,1-2.53-.11,9.39,9.39,0,0,1-3.26-1,1.49,1.49,0,0,1-.92-1.37C24.25,32.21,24.26,31.67,24.26,31.13Z" transform="translate(-2.5 -4.71)" fill="#282b35"/><path d="M13.38,15.08a.88.88,0,0,1,.16.09,6.73,6.73,0,0,0,2.66,1.19,14.5,14.5,0,0,0,3.35.35,16,16,0,0,0,4-.32,7.88,7.88,0,0,0,1.91-.61c.37-.18.72-.42,1.08-.63,0,0,0,.06,0,.1,0,.5,0,1,0,1.52a1.1,1.1,0,0,1-.48,1,5.2,5.2,0,0,1-1.74.84,13.13,13.13,0,0,1-3.94.56,15.54,15.54,0,0,1-4.4-.45A6.94,6.94,0,0,1,14.21,18a1.44,1.44,0,0,1-.83-1.35C13.4,16.13,13.38,15.62,13.38,15.08Z" transform="translate(-2.5 -4.71)" fill="#282b35"/></svg>