<svg xmlns="http://www.w3.org/2000/svg" xmlns:xlink="http://www.w3.org/1999/xlink" viewBox="0 0 40 40"><defs><clipPath id="a"><path d="M34,7.24,21.32-.08a2.64,2.64,0,0,0-2.66,0L6,7.24A2.67,2.67,0,0,0,4.65,9.55V24.2A2.68,2.68,0,0,0,6,26.5l6.34,3.66v7.48a.81.81,0,0,0,.81.8.79.79,0,0,0,.39-.11L34,26.5a2.65,2.65,0,0,0,1.33-2.3V9.54A2.69,2.69,0,0,0,34,7.24Z" fill="none"/></clipPath></defs><title>dialogflow</title><g clip-path="url(#a)"><path d="M35.34,12.52,20,21.38,4.66,12.52V30.24l7.67,4.42v8.86l23-13.28Z" fill="#282b35"/><g opacity="0.86"><path d="M20,21.38,4.66,12.52,20,3.66l15.34,8.86Z" fill="#282b35"/><path d="M19.73,21.11l-15-8.65-.09.06L20,21.38l15.34-8.86L35,12.31Z" fill="#282b35"/><path d="M20,21.49v-.11L4.75,12.57l-.09.06Z" fill="#282b35"/></g></g></svg>