<svg xmlns="http://www.w3.org/2000/svg" viewBox="0 0 40 40"><title>django</title><path d="M18.62,2.5h5.73V28.77a38.18,38.18,0,0,1-7.43.77c-7,0-10.64-3.13-10.64-9.14,0-5.79,3.86-9.54,9.85-9.54a9.24,9.24,0,0,1,2.49.29Zm15.1,9.06V24.71c0,4.53-.33,6.71-1.33,8.59s-2.15,2.94-4.68,4.2L22.39,35c2.53-1.17,3.75-2.21,4.53-3.8S28,27.7,28,22.76V11.56ZM27.42,2.5h5.73V8.32H27.42Zm-8.6,13.38a5.72,5.72,0,0,0-1.93-.29c-2.9,0-4.57,1.77-4.57,4.87s1.6,4.68,4.53,4.68a13.36,13.36,0,0,0,2-.14Z" fill="#282b35" fill-rule="evenodd"/></svg>