<svg xmlns="http://www.w3.org/2000/svg" viewBox="0 0 40 40"><title>hosting</title><path d="M18.29,2.5c.52.11,1.05.2,1.56.33A7.3,7.3,0,0,1,22.37,4a1.7,1.7,0,0,0,1.05.33,7.25,7.25,0,0,1,5.9,2.71,2,2,0,0,0,1.35.72,7.13,7.13,0,0,1,5.58,4.09,7.39,7.39,0,0,1-4.42,10.32c-.21.07-.44.12-.71.19,0-.35,0-.66,0-1,0-.62-.08-1.25-.09-1.87,0-.09.14-.23.25-.28a4.39,4.39,0,0,0,2.43-2.41,4.47,4.47,0,0,0-4.29-6.23,1.75,1.75,0,0,1-1.4-.37,3.19,3.19,0,0,1-.44-.6,4.35,4.35,0,0,0-3.24-2.32,4.83,4.83,0,0,0-1.42,0,2,2,0,0,1-1.7-.49,5.4,5.4,0,0,0-8.84,2.51,1.54,1.54,0,0,1-1.79,1.27,4.48,4.48,0,0,0-1.92,8.61c.25.11.31.19.28.49-.08.71,0,1.43-.07,2.15v.48A6,6,0,0,1,7,21.72,7.41,7.41,0,0,1,5.24,9.8a7.24,7.24,0,0,1,4-2,1.14,1.14,0,0,0,.89-.65A8.2,8.2,0,0,1,16.7,2.56l.15-.06Z" fill="#282b35"/><path d="M20,30.55H11.62c-.93,0-1.27-.34-1.27-1.28v-3a1,1,0,0,1,1.12-1.12H28.54a1,1,0,0,1,1.11,1.1v3.21a1,1,0,0,1-1.11,1.1Zm2.68-1.27H27v-1.4H22.67Zm-9.91-2.4a.6.6,0,0,0-.62-.59.61.61,0,0,0-.6.62.64.64,0,0,0,.63.6A.61.61,0,0,0,12.76,26.88Z" fill="#282b35"/><path d="M20,13.21h8.38c.91,0,1.26.34,1.26,1.25v2.94c0,.85-.37,1.22-1.24,1.22H11.59c-.88,0-1.24-.36-1.24-1.25v-3c0-.83.36-1.19,1.18-1.19Zm2.66,4.13H27v-1.4H22.67ZM12.76,15a.62.62,0,0,0-.61-.61.65.65,0,0,0-.61.62.61.61,0,0,0,.62.6A.59.59,0,0,0,12.76,15Z" fill="#282b35"/><path d="M20,19.18h8.41c.89,0,1.24.35,1.24,1.24v3a1,1,0,0,1-1.12,1.12H11.47a1,1,0,0,1-1.12-1.13V20.28a1,1,0,0,1,1.1-1.1Zm7,2.72H22.67v1.41H27Zm-14.84-.36a.6.6,0,0,0,.6-.61.61.61,0,0,0-.61-.61.63.63,0,0,0-.61.62A.61.61,0,0,0,12.16,21.54Z" fill="#282b35"/><path d="M17,37.5v-.67H10.59V34.52H17l0-.69h1.83V31.16h2.29v2.65H23v.7h6.43v2.3H23l0,.69Z" fill="#282b35"/></svg>