<svg xmlns="http://www.w3.org/2000/svg" viewBox="0 0 40 40"><title>jquery</title><path d="M23.65,3.51a.62.62,0,0,0-.23.07A5.75,5.75,0,0,0,21.9,5l0,0a6.69,6.69,0,0,0-1.12,3.67,7.28,7.28,0,0,0,.58,2.92,9,9,0,0,0,5.07,4.86l.28.1.14,0,.08,0a2.42,2.42,0,0,0,.36.1A10.61,10.61,0,0,0,29,17h.28a6.74,6.74,0,0,0,6.23-3.87,1.12,1.12,0,0,1,.13-.21h0a.75.75,0,0,0-1.24-.84h0c-1.1,1.61-3,2.1-5.57,1.46a5.8,5.8,0,0,1-.59-.19A5.2,5.2,0,0,1,27.5,13a6.79,6.79,0,0,1-1.27-.79c-2.29-1.77-3.18-5.46-1.85-7.59a.75.75,0,0,0-.07-.9A.73.73,0,0,0,23.65,3.51ZM17,5a.75.75,0,0,0-.49.17,17.77,17.77,0,0,0-2.34,2.5l0,0a10.77,10.77,0,0,0-.39,10.82,13.31,13.31,0,0,0,.94,1.61l.11.15a7.14,7.14,0,0,0,1,1.28c.14.16.3.32.45.47l.07.08.06.06.48.45h0l.05,0,.62.52.07.05.59.44.06,0,.21.14.07,0,.08.06.51.31.37.21.19.1.23.12.07,0,.46.22.24.11a5.46,5.46,0,0,0,.51.2l.08,0,.09,0,.43.15.32.11a3.92,3.92,0,0,0,.57.15,18,18,0,0,0,2.95.26H26a11,11,0,0,0,10.46-7.29.76.76,0,0,0-.4-.89.74.74,0,0,0-.94.26C33,21.14,29.06,22.44,25,21.37l-.59-.17-.13-.05L23.89,21l-.21-.08a2.84,2.84,0,0,1-.38-.16l-.1,0-.51-.24-.43-.22L22,20.09l-.07,0-.08,0-.31-.21-.07,0-.07-.05-.26-.16-.57-.43-.08-.07a12,12,0,0,1-4-5.82,9.27,9.27,0,0,1,1.24-7.1.75.75,0,0,0-.17-1A.69.69,0,0,0,17,5ZM8.75,7.25a.78.78,0,0,0-.5.19,16.32,16.32,0,0,0-2.62,3.15C2.56,15.05,3.15,22,5.26,26.22a2.1,2.1,0,0,0,.13.26l0,.05a1.84,1.84,0,0,0,.09.19.6.6,0,0,0,.08.13,2.05,2.05,0,0,0,.13.25l.24.41.08.14.15.23.12.19a1.16,1.16,0,0,0,.09.14c.12.18.23.36.36.53l0,0,0,.07a5.1,5.1,0,0,0,.31.42l.43.54,0,.07.06.07.41.46.06.07c.13.15.27.29.41.44l.13.13c.11.11.22.23.34.34l.06.05.11.11c.14.14.29.27.4.36l.12.11.42.35.72.57.38.28.15.1,0,.05.54.36.64.39.13.07.44.26.24.12.39.2.15.07a6,6,0,0,0,.56.26l.07,0,.64.27.1,0c.18.08.37.15.52.2l.11.05.68.21.09,0,.15.05a3.87,3.87,0,0,0,.56.15,22.26,22.26,0,0,0,4.05.39h0a15,15,0,0,0,14.2-8.73.75.75,0,0,0-1.3-.72c-2.76,3.63-8,5-13.91,3.61l-.43-.12-.28-.09-.57-.19-.09,0-.47-.18L18.49,30,18,29.76l-.1,0-.47-.22-.14-.07-.35-.18-.61-.33a1.18,1.18,0,0,0-.19-.11l-.56-.35-.15-.1-.44-.3-.08,0-.35-.26-.23-.18L14,27.36l-.16-.14-.4-.34-.06,0-.48-.45-.53-.53-.4-.43-.44-.5-.32-.39a1.55,1.55,0,0,0-.13-.17c-.1-.15-.21-.29-.32-.44-2.92-4-3.68-12.41-1.41-15.48a.76.76,0,0,0-.1-1A.78.78,0,0,0,8.75,7.25Z" fill="#282b35"/></svg>