<svg xmlns="http://www.w3.org/2000/svg" viewBox="0 0 40 40"><title>mysql</title><path d="M20,10.25C9.91,10.25,2,14.53,2,20s7.91,9.75,18,9.75S38,25.47,38,20,30.09,10.25,20,10.25Zm-1.87,3h2l-.63,3h1.76a3.45,3.45,0,0,1,2.28.54,2,2,0,0,1,.38,1.88l-.78,3.58h-2l.72-3.31a1.11,1.11,0,0,0-.1-.94,1.37,1.37,0,0,0-1-.25H19.17l-1,4.5h-2Zm-8.63,3h4a2.43,2.43,0,0,1,2.61,3.18c-.53,2.22-1.93,2.82-4.52,2.82H10.36L10,24.5H8Zm15.75,0h4a2.43,2.43,0,0,1,2.61,3.18c-.53,2.22-1.93,2.82-4.52,2.82H26.11l-.39,2.25h-2Zm-14,1.5-.56,3h1.28c1.11,0,2.14-.13,2.31-1.78.07-.64-.2-1.22-1.48-1.22Zm15.75,0-.56,3h1.28c1.11,0,2.14-.13,2.31-1.78.07-.64-.2-1.22-1.48-1.22Z" fill="#282b35"/></svg>