<svg version="1.1" id="prefix__Layer_1" xmlns="http://www.w3.org/2000/svg" x="0" y="0" viewBox="0 0 40 40" xml:space="preserve"><style>.prefix__st0{fill:#282b35}</style><path class="prefix__st0" d="M9.3 15.8c.8-.7 1.5-1.5 1.9-2.5.1 1.3-.7 2.5-1.9 2.8-.2 1.6-.5 4.2-.7 5.8-.1 1.4.2 1.9.3 2.1.6.7 1.4 1.3 2.2 1.7.8.4.8.4.8 0 0-1 .2-1.9.4-2.9l-.8-.4v-.1c-.4.1-.9.1-1.3 0-.6-.5-1.1-1.2-1.3-1.9.4 1.1 1.5 1.9 2.6 1.8.1-.2.4-.7 1.1-1.5l.5-.5c-.2.1-.5.1-.7.1-1.4 0-2.5-1.1-2.5-2.5s1.1-2.5 2.5-2.5 2.5 1.1 2.5 2.5c0 .3-.1.6-.2.9.4-.3.9-.7 1.3-1l.7.4s-.2.7-1.7 1.6h-.1c.7-.4 1.7-.9 2.3-1.4.7-.8 1.8-1.3 2.8-1.5 1.1.1 2 .7 2.8 1.5.5.5 1.3.8 1.9 1.2-1.3-.8-1.5-1.5-1.5-1.5l.7-.4c.5.4 1.1.8 1.6 1.2-.2-.3-.3-.7-.3-1.1 0-1.4 1.1-2.5 2.5-2.5s2.5 1.1 2.5 2.5-1.1 2.5-2.5 2.5c-.3 0-.7-.1-1-.2l.6.6c.7.8 1 1.3 1.1 1.5 1.2.1 2.3-.6 2.7-1.8-.1.8-.6 1.5-1.3 1.9-.5.1-.9.1-1.4 0v.1l-.8.4c.2.9.4 1.9.4 2.9 0 .4.2.3.8 0 .9-.5 1.7-1.2 2.3-1.9.1-.3.3-.8.2-1.9-.2-1.6-.4-4.2-.7-5.8-1.3-.3-2.2-1.5-2.1-2.9.4 1.1 1.1 2 2 2.6-.1-.4-.1-.7-.2-1-.4-1.2-2.4-3.8-3.2-4.9-.3-.3-.5-.4-.5-.4-1.7-.5-4-.7-6.9-.7-3.1 0-5.5.3-7.4.8-.4.6-3 3.9-3.4 5.2.5.4.4.7.4 1.1zm10.9 0c-1.4 0-2.8.5-3.9 1.3 1-1 2.4-1.7 3.8-1.8h.1c1.5.1 2.8.8 3.9 1.8-1.2-.8-2.5-1.2-3.9-1.3zm-.1-3.5c.1 0 .1 0 0 0 .8.1 1.5.6 2 1.2-.5-.5-1.2-.9-1.9-.9s-1.4.4-1.9.9c-.1 0 1-1.2 1.8-1.2zm-2.4 2.3c1.5-.9 3.4-.8 4.9.2-.2-2.6 3.4-1.6 3.4-1.6-3.4-.6-2.8 2.1-3.1 2.2-.3.1-.6-.9-2.8-1s-2.6 1-2.8 1 .7-1.6-.5-2c-.9-.3-1.9-.3-2.9-.1 4.6-1.1 3.8 1.3 3.8 1.3zM31.7 23.6v.2c.1-.1.1-.3.2-.4-.1 0-.1.1-.2.2zM8.3 23.3c0 .1 0 .1 0 0 0 .1 0 .1 0 0v0zM29.8 27.5c.2-.4.3-.7.3-1.2 0-.2.1-.4.2-.6-.2.3-.3.5-.3.8 0 .4 0 .7-.2 1zM25.7 30.3c-.4 0-.8.1-1.1.2.4-.1.8-.2 1.1-.2zM30.4 25.7c.2-.4.5-.7.8-1.1h-.1c-.2.4-.5.7-.7 1.1zM31.5 24.3c.1-.2.2-.3.2-.5-.1.1-.1.2-.2.3v.2zM27.2 29.6c-.1.1-.2.3-.4.3 1.6-.5 2.6-1.4 3-2.5-.4 1-1.3 1.7-2.6 2.2z"/><path class="prefix__st0" d="M27.2 17.4c.4 0 .7-.3.7-.6 0-.4-.3-.7-.7-.7-.4 0-.6.3-.6.7 0 .3.3.6.6.6zM26.1 20.4c-.3-.3-.7-.6-1.2-.9.1.1.2.1.2.2 1.1.8 2.1 1.9 2.8 3.2-.4-1-1-1.8-1.8-2.5zM26.9 20.1l-1.2-1.2c.2.6.7 1 1.2 1.2zM13.4 29.9s0-.1 0 0l-.2-.2c-1.9-.7-2.9-1.8-3.1-3.3-.1-.7-.6-1.2-1.1-1.8 0 0-.1 0-.2-.1s-.1-.3-.2-.4c-.2-.2-.3-.5-.3-.7.2 1.1 1.6 2.1 1.7 3.1.2 1.8 1.5 3 4.1 3.7-.2 0-.4-.1-.5-.2-.1 0-.1-.1-.2-.1zM15.8 30.5c-.5-.2-1.1-.2-1.6-.3.5.1 1 .2 1.6.3zM20.1 16.9v.6h.1l-.1-.6c.1 0 .1 0 0 0zM20.1 31c-1.5 0-2.9.2-4.3-.5h-.1.1c1.4.8 2.9.5 4.3.5 1.6 0 3 .2 4.4-.5h.1-.2c-1.4.7-2.8.5-4.3.5zM14.2 30.2c-.1 0-.1 0 0 0-.1 0-.1 0 0 0zM26 30.2c-.1 0-.2 0-.3.1.4 0 .8-.1 1.1-.3-.1 0-.1 0-.2.1-.2 0-.4.1-.6.1zM22.5 19.2c-.3.7-1.3.9-2.3.9.1 1 .2 2 .5 2.9 1.1.4 2.3 1.6 2.5 3.2.2.6.4 1.2.5 1.8 1.7-.5 3.2-1.5 4.2-3v.6c0 2.4-.3 3.5-.8 4.1h.1c.5-.6.8-1.7.8-4 .2-1.5-.2-3-1.3-4-1.1-1.4-2.5-2.3-4.2-2.8.1 0 .1.2 0 .3zm2 1.9c.1 0 .2.1.2.2s-.1.2-.2.2-.2-.1-.2-.2c-.1-.1 0-.2.2-.2zm-.5 1.4c.1 0 .2.1.2.2s-.1.2-.2.2-.2-.1-.2-.2.1-.2.2-.2zm-1-1.2c0 .1-.1.2-.2.2s-.2-.1-.2-.2.1-.2.2-.2.2.1.2.2zM20.2 23.1z"/><path class="prefix__st0" d="M23.1 25.7c-.2-.5-.5-.9-.8-1.3-.6-.4-1.3-.7-2-.8h-.1v5c1-.1 2-.3 2.9-.7h.2c.1-.7-.1-1.7-.2-2.2zM20.1 23.2c-.3 0-1 .3-1.6.8.5-.4 1.1-.7 1.6-.8z"/><path class="prefix__st0" d="M16.4 28h.1c.1-.5.3-1.1.5-1.6.1-1.6 1.3-2.9 2.4-3.3.3-1 .5-2 .6-3-1 0-1.8-.3-2.1-.9-.1-.1-.1-.3 0-.5-1.7.5-3.1 1.5-4.2 2.9-1 1-1.4 2.3-1.3 3.7 1 1.3 2.4 2.3 4 2.7zm.9-6.9c.1 0 .2.1.2.2s-.1.2-.2.2-.3 0-.3-.2c0-.1.1-.2.3-.2zM16 22.5c.1 0 .2.1.2.2s-.1.2-.2.2-.2-.1-.2-.2 0-.2.2-.2zm-.5-1.4c.1 0 .2.1.2.2s-.1.2-.2.2-.2-.1-.2-.2.1-.2.2-.2zM20.1 20.4v-.3H20l.1 1.1v-.8z"/><path class="prefix__st0" d="M18.4 24.1c-.6.6-1.1 1.3-1.3 2.1l.3-.9s-.5 1.6-.4 2.6c1 .3 2 .5 3 .6v.1h.1v-5c-.8.1-1.6.5-2.2 1 .2-.1.3-.3.5-.5zM20.1 22.7v-.1.3-.2zM20.9 17.9s-.5.2-.7.3v.2h.5c.6 0 1.2.2 1.8.3-.2-.6-1.1-1.3-2.3-1.3v.4h.7zM17.9 18.7c.5-.2 1.1-.3 1.6-.3h.6v-.2c-.2 0-.8-.3-.8-.3h.8v-.4c-1.2.1-2 .7-2.2 1.2zM20.1 18.4v.8c0 .1 0 .1.1.1l-.1-.9c.1 0 .1 0 0 0 .1 0 0 0 0 0zM20 19.9v.2-.2zM20.3 20.1v-.2.2c-.1 0-.1 0 0 0-.1 0 0 0 0 0zM20.2 21v-.9h-.1v2l.1-1.1z"/><path class="prefix__st0" d="M20.1 22.6l-.1-1.3c.1.4.1.8.1 1.3zM20.2 22.9c.1-.4.1-1.9.1-2.5v-.3.9l-.1 1.9zM20.1 22.9v-.8V22.9zM20.2 20.1v-.3c0-.1 1-.1 1.5-.5 0 0-1 .3-1.3.2-.1-.1-.2-.2-.2-.3v.9z"/><path class="prefix__st0" d="M18.5 19.4c.5.1 1.1.3 1.6.5v.2h.1v-1c0 .2-.1.3-.2.4-.6.1-1.1 0-1.5-.1zM20.1 23.2v.5-.5c.1-.1.1 0 0 0zM12.4 25.6v-.3.3c0 2.4.3 3.5.8 4.1-.5-.6-.8-1.7-.8-4.1zM20.2 30.8c1.6 0 3-.1 4.2-.3h.1c.5-.2 1-.2 1.5-.3.2-.1.4-.1.6-.2.2-.1.3-.2.5-.4-1.6.6-3.8.8-6.9.8v.4zM20.2 30.8zM20.2 30.8v-.2c-3.1 0-5.4-.3-7-.9 0 .1.1.1.1.2 0 0 .1 0 .1.1l.1.1c.7.4 1.6.2 2.2.5h.1c1.2.2 2.6.2 4.2.2h.2zM20.2 30.5v-1.9 1.9zM23.3 28c0 .2-.1.3-.1.5l.7-.3v-.1c-.2-.1-.4-.1-.6-.1zM16.6 28v.1l.6.3c-.1-.1-.1-.3-.1-.4h-.5zM20.1 23.1c.1 0 .1 0 0 0 .1 0 .1 0 0 0V23v.1zM20.1 23c-.2 0-.4 0-.7.1l.7-.1zM20.2 23l.6.1V23c-.2-.1-.4-.1-.6 0 0-.1 0 0 0 0zM20.1 22.9v.1-.1c0 .1 0 0 0 0zM20.2 22.9v.1-.1z"/><path class="prefix__st0" d="M22.3 24.5c-.5-.7-1.3-1.2-2.1-1.4.8.3 1.5.7 2.1 1.4zM18.4 24.1l.2-.2-.2.2zM23 25.4s0 .1.1.3c.1.3.2.7.3 1v-.1-.4c-.2-.3-.3-.5-.4-.8zM17 26.7c0-.2 0-.3.1-.5 0 0 0 .1-.1.1v.4zM20.5 18.9c.1.2.2.4.3.4.1 0 .2-.2.1-.5 0-.2-.1-.3-.2-.3h-.1c-.1 0-.2.2-.1.4zM19.3 18.8c-.1.2 0 .4.1.5.1 0 .3-.1.3-.3.1-.2 0-.4-.1-.5h-.1c-.1 0-.2.1-.2.3zM13 16.1c-.4 0-.6.3-.6.7 0 .4.3.6.6.6.4 0 .7-.3.7-.6 0-.4-.3-.7-.7-.7zM20.2 18.2v-.3h-.1l.1.3c-.1 0 0 0 0 0zM14.9 19.8c-.4.2-.7.4-.9.7-.8.7-1.4 1.5-1.8 2.5.7-1.3 1.6-2.4 2.7-3.2zM14.7 18.8c-.6.5-1.1.9-1.6 1.4.7-.2 1.3-.7 1.6-1.4zM27.8 22.1l.9.3s0-.1-.1-.1c-.2 0-.5 0-.7-.1 0-.1-.1-.1-.1-.1zM12.3 22.1c-.3.1-.5.1-.8.1 0 .1 0 .1-.1.1.3-.1.7-.1 1-.3 0 .1-.1.1-.1.1zM8.3 23.4v-.1-.2c0-.2-.1-.4-.1-.5v-.2c-.1-.5-.1-.9-.2-1.4 0 .3 0 .5-.1.8l.4 1.6zM12.8 9.8c.1 0 .1-.1.1-.1l-.1.1c.1-.1 0-.1 0 0zM12.9 9.7zM32 22.3c0 .1.1.2.1.2 0 .2-.1.4-.2.6V23.4l.3-1.4c0-.2-.1-.4-.1-.6 0 .4-.1.6-.1.9zM30.9 15.9v.2c.1 0 .2.1.4.1-.1-.1-.3-.2-.4-.3zM8.7 16.2c.2 0 .4-.1.5-.1 0-.1 0-.2.1-.3-.2.1-.4.3-.6.4zM34.5 20.6l-.8 1.5c.3-.4.6-1 .8-1.5zM32.2 22c.1.5.2.8.4.9.3.2.7-.1 1.1-.6 0-1.4-.2-2.7-.6-4.1l-.9 3.8zM32 10.6c-2.2-1-4.9-1.1-4.9-.9 1.2.3 2.1.7 2.8 1.2l.7.3.2.4c.3.3.6.7.8 1 .2.4.4.8.4 1.3 1.3 1.6 2.3 3.4 3.1 5.3.6-.7 2.7-2.4 2.8-2.7s-4.1-5-5.9-5.9z"/><path class="prefix__st0" d="M27.5 10.1c.9.9 3 3 3.8 5.5.6 2.1.7 4.4.8 6 .1-.8.2-1.6.3-2.5 0-1.1-.1-2.1-.3-3.2v-.5c-.6-1.4-1.4-2.8-2.3-4 .6.6 1.1 1.2 1.7 1.8l-.7-1.6c-.3-.3-.6-.5-.9-.7l-2.7-1.2s.1.1.3.4zM35.2 19.2c-.1.1-.4.7-.7 1.4l.7-1.4zM33.6 22.4l.1-.3c0 .1 0 .2-.1.3zM32.1 14.6v-.7c-.2-.3-.4-.5-.6-.8l.6 1.5zM32.1 15.4c.4.9.7 1.9.9 2.9l.2-.9-1.2-2.8c.1.3.1.5.1.8zM8.3 13.3c.1-.2.2-.5.3-.7.2-.3.4-.6.6-.8l.3-.7 1.3-.6c.5-.3 1.1-.5 1.7-.7l.4-.2c.2-.2-2.6-.1-4.9.9-1.8.9-6.1 5.6-6 5.9s2.2 2 2.8 2.7v.1c.9-2.1 2.1-4.1 3.5-5.9zM6.4 22.3c.4.5.7.9 1.1.6.2-.1.3-.6.4-1.3L7 18c-.4 1.4-.6 2.9-.6 4.3zM6.3 22.2l-.9-1.9c.2.5.5 1.3.9 1.9z"/><path class="prefix__st0" d="M12.8 9.8c-.1 0-.2.1-.3.1l-1.7.7c-.7.4-1.2.8-1.6 1.2l-.4 1c.4-.5.9-1 1.4-1.5-.9 1.2-1.6 2.4-2.1 3.7v.8c-.2 1-.3 2.1-.3 3.1.1.6.2 1.3.2 1.9.1-1.5.2-3.5.8-5.4.8-2.7 3.4-5.1 4-5.6zM5.3 20.2c-.2-.4-.3-.8-.5-.9l.5.9zM6.4 22.4c0-.1-.1-.2-.1-.2l.1.2zM8.3 13.3c-.1.4-.2.8-.2 1.1l.7-1.7c-.2.3-.3.5-.5.6zM6.9 17.4l.1.6c.3-1 .6-2 1-2.9 0-.2 0-.4.1-.6l-1.2 2.9zM31.3 24.5c0-.1.1-.2.1-.2-.1.1-.2.2-.2.4 0-.1.1-.1.1-.2z"/><path class="prefix__st0" d="M31.4 23.9c-.1.2-.2.3-.2.3s-.2.5 0 .5c.1-.2.3-.3.4-.5.1-.2.2-.3.2-.5 0-.1.1-.2.1-.2-.2.1-.4.2-.5.4zM8.9 24.1c-.3-.3-.4-.5-.6-.7.1.2.2.4.3.7.1.2.3.3.4.5.1 0-.1-.5-.1-.5zM8.6 21.9c.1-1.5-.3-.2-.4.4 0 .2.1.5.1.7 0 .1 0 .2.1.3 0-.2.1-.7.2-1.4zM31.6 21.9c.1.7.2 1.2.3 1.4 0-.1 0-.1.1-.2 0-.3.1-.6.1-.8-.2-.6-.6-1.9-.5-.4z"/></svg>