<svg xmlns="http://www.w3.org/2000/svg" viewBox="0 0 40 40"><title>typescript</title><path d="M0,20V40H40V0H0Zm32.24-1.59a4.88,4.88,0,0,1,2.49,1.44,6,6,0,0,1,1,1.29S34,22.37,32.91,23a1.67,1.67,0,0,1-.36-.4,2.3,2.3,0,0,0-1.88-1.15c-1.21-.08-2,.56-2,1.63a1.37,1.37,0,0,0,.17.74c.26.56.76.88,2.28,1.55,2.86,1.24,4.08,2.05,4.85,3.2a5.89,5.89,0,0,1,.47,4.88A5.37,5.37,0,0,1,32,36.64a11.9,11.9,0,0,1-3,0,7.36,7.36,0,0,1-4.07-2.13,7.06,7.06,0,0,1-1-1.54,2.92,2.92,0,0,1,.37-.24l1.49-.86,1.14-.66.25.36A5.22,5.22,0,0,0,28.63,33a3.72,3.72,0,0,0,3.94-.22,1.49,1.49,0,0,0,.52-1.2,1.55,1.55,0,0,0-.3-1c-.31-.43-.94-.81-2.74-1.6a9.84,9.84,0,0,1-3.78-2.28,5.4,5.4,0,0,1-1.14-2,8.15,8.15,0,0,1-.07-2.56,4.86,4.86,0,0,1,4.11-3.8,10.19,10.19,0,0,1,3,.09Zm-9.39,1.67v1.63h-5.2V36.5H14V21.71H8.77V18.46h14Z" fill="#282b35"/></svg>