<svg xmlns="http://www.w3.org/2000/svg" viewBox="0 0 40 40"><title>after_effect</title><g style="isolation:isolate"><g opacity="0.1" style="mix-blend-mode:multiply"><path d="M7.89,26.08l-2,6.47H1.63L8.94,9.73h5.32l7.42,22.82H17.21l-2.07-6.47Zm6.54-3.15-1.8-5.62c-.44-1.39-.81-2.94-1.15-4.26h-.06c-.34,1.32-.68,2.91-1.09,4.26L8.57,22.93Z"/></g><path d="M7.89,24.76l-2,6.46H1.63L8.94,8.4h5.32l7.42,22.82H17.21l-2.07-6.46Zm6.54-3.15L12.63,16c-.44-1.39-.81-3-1.15-4.27h-.06c-.34,1.32-.68,2.91-1.09,4.27L8.57,21.61Z" fill="#282b35"/><g opacity="0.1" style="mix-blend-mode:multiply"><path d="M27.2,25.47c.1,3,2.43,4.27,5.07,4.27A12.34,12.34,0,0,0,36.85,29l.61,2.88a15.43,15.43,0,0,1-5.76,1.05c-5.35,0-8.5-3.32-8.5-8.36,0-4.57,2.78-8.87,8.06-8.87s7.11,4.4,7.11,8a9.88,9.88,0,0,1-.14,1.76Zm7.24-2.91c0-1.52-.64-4-3.42-4-2.57,0-3.66,2.34-3.82,4Z"/></g><path d="M27.2,24.15c.1,3,2.43,4.26,5.07,4.26a12.56,12.56,0,0,0,4.58-.74l.61,2.88A15.63,15.63,0,0,1,31.7,31.6c-5.35,0-8.5-3.32-8.5-8.37,0-4.57,2.78-8.87,8.06-8.87s7.11,4.4,7.11,8a10,10,0,0,1-.14,1.76Zm7.24-2.91c0-1.53-.64-4-3.42-4-2.57,0-3.66,2.33-3.82,4Z" fill="#282b35"/></g></svg>