<svg xmlns="http://www.w3.org/2000/svg" viewBox="0 0 40 40"><title>illustrator</title><g style="isolation:isolate"><g opacity="0.1" style="mix-blend-mode:multiply"><path d="M13.17,26.57l-2,6.51H6.87l7.36-23h5.34l7.46,23H22.54l-2.08-6.51Zm6.58-3.17-1.81-5.65c-.44-1.4-.82-3-1.16-4.29h-.07c-.34,1.33-.68,2.93-1.09,4.29L13.85,23.4Z"/></g><path d="M13.17,25.24l-2,6.51H6.87L14.23,8.8h5.34l7.46,23H22.54l-2.08-6.51Zm6.58-3.16-1.81-5.66c-.44-1.39-.82-3-1.16-4.29h-.07c-.34,1.33-.68,2.93-1.09,4.29l-1.77,5.66Z" fill="#282b35"/><g opacity="0.1" style="mix-blend-mode:multiply"><path d="M33.13,11.86a2.22,2.22,0,0,1-2.39,2.25,2.2,2.2,0,0,1-2.31-2.25,2.35,2.35,0,0,1,4.7,0ZM28.67,33.08V16.49h4.22V33.08Z"/></g><path d="M33.13,10.53a2.22,2.22,0,0,1-2.39,2.25,2.2,2.2,0,0,1-2.31-2.25,2.35,2.35,0,0,1,4.7,0ZM28.67,31.75V15.16h4.22V31.75Z" fill="#282b35"/></g></svg>