<svg version="1.1" id="prefix__Layer_1" xmlns="http://www.w3.org/2000/svg" x="0" y="0" viewBox="0 0 40 40" xml:space="preserve"><style>.prefix__st0{fill:#282b35}</style><path class="prefix__st0" d="M17.2 2.5c-6.5 0-11.8 2.3-11.8 5v.2c.2 2.7 5.4 4.9 11.7 4.9S29 10.3 29 7.5s-5.3-5-11.8-5m.1 9c-5.9 0-10.4-2-10.6-3.8v-.2c0-1.9 4.6-4 10.7-4S28 5.7 28 7.6c0 1.8-4.6 4-10.7 3.9M30.1 22.9l-.1-.2c-.1-.1-.1-.1-.1-.2h.1l.1.1v.1c.1.1.1.2 0 .2zm4.7 4.7l-.6-.3c-.1-.1-.2-.1-.3-.2-.1-.1-.2-.2-.2-.3 0-.1 0-.1-.1-.1 0-.1.1-.1.2-.1.3-.1.6-.2.9-.1 0-.1-.2-.2-.3-.3s-.3-.2-.5-.3c-.1 0-.2-.1-.3-.1-.1-.1-.4-.1-.5-.2l-.3-.6c-.1-.2-.2-.5-.3-.7s-.1-.2-.1-.3c-.3-.6-.8-1.2-1.5-1.6-.2-.1-.4-.2-.7-.3h-.6c-.1 0-.1-.1-.2-.2s-.3-.2-.5-.2c-.1 0-.2-.1-.3 0 0 0-.1 0-.1.1v.2c.1.1.2.3.3.4.1.1.2.2.2.4s.2.5.3.8c.1.1.1.2.2.3l.2.2c.1.1-.1.4-.1.5-.1.4-.1.8 0 1.2 0 .1.1.3.3.3 0-.2.1-.5.1-.7.1-.1.1-.2.2-.3 0 0 0 .1.1.2.1.2.1.3.2.4.1.3.3.6.5.8.1.1.1.2.2.3 0 0 .1 0 .1.1-.1 0-.2-.2-.3-.3l-.6-.6-.2-.4v.1c-.1.2 0 .5-.2.6s-.4-.1-.5-.3c-.2-.5-.3-1-.1-1.5 0-.1 0-.2.1-.4 0-.1-.1-.1-.1-.2-.1-.1-.1-.2-.2-.3l-.3-.6c0-.1 0-.2-.1-.2-.1-.1-.2-.2-.2-.4s-.4-.4-.3-.7c.2-.5.9-.1 1.1 0 .1 0 .1.1.2.2h.4c.2 0 .4.1.6.2.7.4 1.4 1 1.8 1.7.1.2.2.3.2.5.1.3.3.5.4.8 0 .1.1.2.2.4 0 0 .1.1.2.1s.3.1.5.2c.3.2.5.4.8.6.1.1.2.2.2.3l-.2.1c-.2 0-.3 0-.5.1-.1 0-.2.1-.3.1.1.2.4.3.5.4.2.1.3.3.5.5l.1.1s0 .1.1.1c-.1 0-.1-.1-.2-.1l-.1-.4zm-5.7-.5h1.3c.5.1.8.3.8.6v1.4c0 .2-.1.5-.4.5l.6.5h-.7l-.5-.4h-1.5c-.4-.1-.6-.3-.6-.6v-1.4c0-.4.3-.6.8-.6h.2zm-.3 2.1c0 .1.2.3.4.3h.5l-.4-.5h.7l.4.4c.1 0 .1-.1.2-.2v-1.5c0-.1-.2-.2-.4-.2h-.9c-.3 0-.5.1-.5.3v1.4zM26 27.5c-.2 0-.3 0-.3.2v.4c0 .2.1.2.4.2h.7c.2 0 .4 0 .5.1.3.1.4.3.4.5v.4c0 .2-.1.4-.4.5-.2.1-.4.1-.6.1h-1.8v-.4h1.7c.1 0 .1 0 .2-.1.1 0 .1-.1.1-.1v-.4-.1c-.1-.1-.2-.1-.3-.1h-.9c-.5 0-.8-.3-.8-.5v-.4c0-.3.2-.5.5-.6.2 0 .3-.1.5 0h1.7v.4l-1.6-.1zm-2.4 3.2h-1.9v-.4h1.9c.4 0 .3-.2.3-.3v-.2h-1.3c-.6 0-1-.3-1-.6v-1.3h.6v1.3c0 .1 0 .2.4.2h1.3V28h.6v2.1c.1.5-.6.7-.9.6zm-3-3.2l-.9 2.1c-.1.2-.3.4-.5.3-.2 0-.5-.1-.6-.3l-.9-2.1v2.4H17v-2.4c0-.2.1-.4.3-.4.5-.1.8 0 .9.3l.9 2 .9-2c.1-.3.5-.4.9-.3.2 0 .3.2.3.4v2.4h-.6v-2.4zm11.6 1.7c0 .2.1.3.5.3h1.5v.4h-1.8c-.6 0-.9-.3-.9-.7v-2.1h.6l.1 2.1zm2.7-.2c.2 0 .4.3.4.5s-.2.3-.4.4c-.2 0-.5-.1-.5-.4 0-.2.1-.5.4-.5h.1zm0 .8c.2 0 .4-.2.4-.3s-.2-.4-.3-.4c-.2 0-.4.2-.4.3 0 .2.1.4.3.4zm.2-.5c0 .1 0 .1-.1.1l.2.2h-.1l-.1-.2h-.1v.2h-.1v-.5h.2c.1.1.2.1.1.2zm-.3 0v.1h.1c.1 0 .1 0 .1-.1s0 0-.2 0zM15.5 28.9c-5.5-.3-9.8-2.4-10-4.8v6.6c0 2.8 5.3 5 11.7 5 .7 0 1.3 0 2-.1-2-1.6-3.3-4-3.7-6.7zM29 17.6V16c0 .5-.2 1-.5 1.4.2.1.3.1.5.2z"/><path class="prefix__st0" d="M15.5 27c.1-2.3 1-4.4 2.4-6h-.6C11 21 5.8 18.9 5.6 16.2v6.6c0 2.5 4.3 4.6 10 4.9-.2-.2-.2-.4-.1-.7z"/><path class="prefix__st0" d="M18.9 19.9c1.7-1.6 3.9-2.6 6.4-2.7.8 0 1.6 0 2.3.1.9-.7 1.4-1.5 1.4-2.4V8.1c0 2.8-5.3 5-11.8 5S5.7 11 5.5 8.3v6.6c0 2.8 5.3 5 11.7 5h1.7z"/><path d="M15.5 27c-.4 5.8 4.1 10.8 9.9 11.1 5.8.4 10.8-4.1 11.1-9.9v-1.3h0c-.4-5.8-5.3-10.2-11.1-9.9-5.4.5-9.6 4.7-9.9 10z" fill="none" stroke="#282b35" stroke-miterlimit="10"/></svg>