<svg xmlns="http://www.w3.org/2000/svg" viewBox="0 0 40 40"><title>photoshop</title><g style="isolation:isolate"><g opacity="0.1" style="mix-blend-mode:multiply"><path d="M6.34,10.2a35.76,35.76,0,0,1,6.32-.47c3,0,5.24.64,6.69,1.85a6.41,6.41,0,0,1,2.21,5,6.85,6.85,0,0,1-1.95,5.14c-1.64,1.65-4.23,2.42-7.16,2.42a11.63,11.63,0,0,1-2-.14v8.54H6.34Zm4.1,10.55a8,8,0,0,0,2,.17c3.1,0,5-1.51,5-4.17s-1.75-3.86-4.61-3.86a11.41,11.41,0,0,0-2.38.2Z"/></g><path d="M6.34,8.87a35.76,35.76,0,0,1,6.32-.47c3,0,5.24.64,6.69,1.85a6.41,6.41,0,0,1,2.21,5,6.85,6.85,0,0,1-1.95,5.14c-1.64,1.65-4.23,2.42-7.16,2.42a11.74,11.74,0,0,1-2-.13v8.54H6.34Zm4.1,10.56a8.48,8.48,0,0,0,2,.17c3.1,0,5-1.52,5-4.17s-1.75-3.87-4.61-3.87a11.41,11.41,0,0,0-2.38.2Z" fill="#282b35"/><g opacity="0.1" style="mix-blend-mode:multiply"><path d="M22.84,28.75A9.1,9.1,0,0,0,27,29.93c1.82,0,2.62-.74,2.62-1.81S29,26.43,27,25.73c-3.19-1.11-4.53-2.86-4.5-4.77,0-2.9,2.39-5.15,6.19-5.15a9.51,9.51,0,0,1,4.33,1l-.81,2.92a7.34,7.34,0,0,0-3.46-.94c-1.48,0-2.28.71-2.28,1.71s.77,1.55,2.85,2.29c3,1.08,4.34,2.59,4.37,5,0,3-2.32,5.14-6.65,5.14a10.58,10.58,0,0,1-5-1.17Z"/></g><path d="M22.84,27.43A9.22,9.22,0,0,0,27,28.6c1.82,0,2.62-.73,2.62-1.81S29,25.11,27,24.4c-3.19-1.11-4.53-2.85-4.5-4.77,0-2.89,2.39-5.14,6.19-5.14a9.66,9.66,0,0,1,4.33,1l-.81,2.93a7.23,7.23,0,0,0-3.46-.94c-1.48,0-2.28.7-2.28,1.71s.77,1.55,2.85,2.29c3,1.07,4.34,2.58,4.37,5,0,3-2.32,5.15-6.65,5.15a10.57,10.57,0,0,1-5-1.18Z" fill="#282b35"/></g></svg>