<svg xmlns="http://www.w3.org/2000/svg" viewBox="0 0 40 40"><title>premiere</title><path d="M6.08,8.88A36.7,36.7,0,0,1,12.5,8.4c3.08,0,5.33.65,6.8,1.88a6.5,6.5,0,0,1,2.25,5.09,7,7,0,0,1-2,5.23c-1.67,1.67-4.3,2.46-7.27,2.46a12,12,0,0,1-2.05-.14V31.6H6.08Zm4.17,10.73a8.8,8.8,0,0,0,2.05.17c3.14,0,5.05-1.54,5.05-4.24s-1.77-3.93-4.68-3.93a11.6,11.6,0,0,0-2.42.21Z" fill="#282b35"/><path d="M24.59,20.32c0-2.25,0-3.86-.13-5.36h3.65l.14,3.18h.14a5,5,0,0,1,4.54-3.55,4.31,4.31,0,0,1,1,.1v4a5.72,5.72,0,0,0-1.23-.14,3.72,3.72,0,0,0-3.76,3.18A7.14,7.14,0,0,0,28.8,23V31.6H24.59Z" fill="#282b35"/></svg>