<svg xmlns="http://www.w3.org/2000/svg" viewBox="0 0 40 40"><title>woocommerce</title><path d="M24.08,14.23a3.91,3.91,0,0,0-.68-.06c-2.13,0-4.1,2.06-4.7,5a6.84,6.84,0,0,0,.76,5,3.6,3.6,0,0,0,2.29,1.6,3.66,3.66,0,0,0,.65.06c2.13,0,4.13-2,4.73-5a6.84,6.84,0,0,0-.76-5A3.61,3.61,0,0,0,24.08,14.23Zm.19,6c-.37,1.8-1.44,2.73-1.95,2.64a.84.84,0,0,1-.43-.36,4,4,0,0,1-.32-2.82c.35-1.72,1.36-2.64,1.87-2.64h.07a.8.8,0,0,1,.43.36A3.91,3.91,0,0,1,24.27,20.27Z" fill="#282b35"/><path d="M34.29,14.23a3.91,3.91,0,0,0-.68-.06c-2.12,0-4.1,2.06-4.7,5a6.84,6.84,0,0,0,.76,5A3.6,3.6,0,0,0,32,25.77a3.66,3.66,0,0,0,.65.06c2.13,0,4.13-2,4.73-5a6.84,6.84,0,0,0-.76-5A3.61,3.61,0,0,0,34.29,14.23Zm.19,6c-.37,1.8-1.45,2.73-1.95,2.64a.84.84,0,0,1-.43-.36,4,4,0,0,1-.32-2.82c.35-1.72,1.36-2.64,1.87-2.64h.07a.8.8,0,0,1,.43.36A3.91,3.91,0,0,1,34.48,20.27Z" fill="#282b35"/><path d="M16.59,12.22a1.46,1.46,0,0,0-1.34.9,28,28,0,0,0-1.78,7.65A44.52,44.52,0,0,1,12,15.34a1.46,1.46,0,0,0-2.78-.27L6.51,21.58a51.63,51.63,0,0,1-1.1-8A1.44,1.44,0,0,0,3.9,12.23a1.45,1.45,0,0,0-1.4,1.51,65.51,65.51,0,0,0,2.24,13,1.46,1.46,0,0,0,2.76.15l2.72-6.65a23.58,23.58,0,0,0,3.28,7,1.47,1.47,0,0,0,1.15.56,1.61,1.61,0,0,0,.48-.08,1.47,1.47,0,0,0,1-1.38c0-4.95.65-9.24,1.83-12.08a1.45,1.45,0,0,0-.79-1.9A1.38,1.38,0,0,0,16.59,12.22Z" fill="#282b35"/></svg>